# xmcd
#
# Track frame offsets:
#	150
#	19291
#	44140
#	73097
#	104537
#	135316
#	158675
#	189440
#	211087
#	234627
#	251647
#	265090
#
# Disc length: 3893
#
# Revision: 1
# Processed by: cddbd v1.5.1PL0 Copyright (c) Steve Scherf et al.
# Submitted via: CDex 1.51
# Normalized: r0:TRMNUM
#
DISCID=a90f330c
DTITLE=Franco Petrocca Trio - una nuova vita
DYEAR=2004
DGENRE=Jazz
TTITLE0=pluma
TTITLE1=pra vocè
TTITLE2=refleho
TTITLE3=armonia
TTITLE4=guantanamera
TTITLE5=autumn leaves
TTITLE6=el rio
TTITLE7=una nuova vita
TTITLE8=for michel
TTITLE9=chevere
TTITLE10=epilogo
TTITLE11=l` aldilà
EXTD=YEAR: 2004
EXTT0=
EXTT1=
EXTT2=
EXTT3=
EXTT4=
EXTT5=
EXTT6=
EXTT7=
EXTT8=
EXTT9=
EXTT10=
EXTT11=
PLAYORDER=
